<svg xmlns="http://www.w3.org/2000/svg" xmlns:xlink="http://www.w3.org/1999/xlink" width="2218" height="2820" viewBox="0 0 2218 2820">
  <defs>
    <clipPath id="clip-Web_1920_7">
      <rect width="2218" height="2820"/>
    </clipPath>
  </defs>
  <g id="Web_1920_7" data-name="Web 1920 – 7" clip-path="url(#clip-Web_1920_7)">
    <rect width="2218" height="2820" fill="#fff"/>
    <path id="Union_3" data-name="Union 3" d="M-5970,233V0h397.5V21H-5949V212h376.5v21Zm261.115-52.224a72.422,72.422,0,0,1-22.633-15.281,70.824,70.824,0,0,1-15.185-22.729,71.037,71.037,0,0,1-5.54-27.982A70.347,70.347,0,0,1-5746.7,86.9a72.241,72.241,0,0,1,15.185-22.729,71.626,71.626,0,0,1,22.633-15.375A69.308,69.308,0,0,1-5681,43.159a69.317,69.317,0,0,1,27.887,5.635,72.778,72.778,0,0,1,22.728,15.375A71.413,71.413,0,0,1-5615.1,86.9a70.347,70.347,0,0,1,5.539,27.886,62.693,62.693,0,0,1-4.489,23.589,75.569,75.569,0,0,1-12.128,20.342l20.056,25.785H-5642.8l-5.73-7.067a68.829,68.829,0,0,1-15.854,6.685A61.587,61.587,0,0,1-5681,186.409,69.307,69.307,0,0,1-5708.886,180.776Zm12.415-103.045a39.189,39.189,0,0,0-12.223,8.691,40.24,40.24,0,0,0-8.118,12.8,41.3,41.3,0,0,0-2.96,15.566,40.569,40.569,0,0,0,2.96,15.471,40.507,40.507,0,0,0,8.118,12.7,37.928,37.928,0,0,0,12.223,8.594A37.542,37.542,0,0,0-5681,154.7a40.794,40.794,0,0,0,12.988-2.1l-30.942-39.536h37.628l15.279,19.864a40,40,0,0,0,4.2-18.146,41.3,41.3,0,0,0-2.96-15.566,38.657,38.657,0,0,0-8.308-12.8,41.223,41.223,0,0,0-12.511-8.691A36.8,36.8,0,0,0-5681,74.484,36.608,36.608,0,0,0-5696.471,77.73ZM-5894.5,55.5l102,59-102,59Z" transform="translate(6046.319 60.5)" fill="#ff7f00"/>
    <path id="Union_5" data-name="Union 5" d="M-5970,233V0h233V21h-212V212h212v21Zm97.3-50.51a72.412,72.412,0,0,1-22.634-15.279,70.838,70.838,0,0,1-15.184-22.729,71.016,71.016,0,0,1-5.539-27.982,70.321,70.321,0,0,1,5.539-27.886,72.238,72.238,0,0,1,15.184-22.729A71.594,71.594,0,0,1-5872.7,50.51a69.281,69.281,0,0,1,27.886-5.635,69.282,69.282,0,0,1,27.886,5.635A72.74,72.74,0,0,1-5794.2,65.885a71.454,71.454,0,0,1,15.281,22.729,70.354,70.354,0,0,1,5.538,27.886,62.7,62.7,0,0,1-4.487,23.589A75.6,75.6,0,0,1-5790,160.429l20.055,25.785h-36.672l-5.731-7.067a68.815,68.815,0,0,1-15.852,6.685,61.549,61.549,0,0,1-16.618,2.292A69.306,69.306,0,0,1-5872.7,182.49Zm12.415-103.044a39.2,39.2,0,0,0-12.225,8.69,40.282,40.282,0,0,0-8.118,12.8,41.3,41.3,0,0,0-2.96,15.567,40.58,40.58,0,0,0,2.96,15.471,40.561,40.561,0,0,0,8.118,12.7,37.927,37.927,0,0,0,12.225,8.6,37.558,37.558,0,0,0,15.471,3.151,40.809,40.809,0,0,0,12.989-2.1l-30.942-39.536h37.626l15.281,19.864a40.028,40.028,0,0,0,4.2-18.146,41.3,41.3,0,0,0-2.961-15.567,38.633,38.633,0,0,0-8.308-12.8,41.233,41.233,0,0,0-12.511-8.69,36.8,36.8,0,0,0-15.375-3.247A36.6,36.6,0,0,0-5860.286,79.446Z" transform="translate(6046.319 565.501)" fill="#ff7f00"/>
    <path id="Union_3-2" data-name="Union 3" d="M-5970,233V0h769.5V21H-5949V212h748.5v21Zm868.208-50.409a47.963,47.963,0,0,1-17.667-11.078,49.88,49.88,0,0,1-11.269-17.764,67.143,67.143,0,0,1-4.011-24.065V45.07h33.805v84.613q0,11.651,6.017,17.954t16.332,6.3q10.122,0,16.425-6.3t6.3-17.954V45.07h33.807v84.613a67.175,67.175,0,0,1-4.011,24.065,49.9,49.9,0,0,1-11.27,17.764,47.837,47.837,0,0,1-17.762,11.078,67.763,67.763,0,0,1-23.3,3.819A67.545,67.545,0,0,1-5101.792,182.59Zm-458.019,0a47.969,47.969,0,0,1-17.666-11.078,49.9,49.9,0,0,1-11.27-17.764,67.175,67.175,0,0,1-4.011-24.065V45.07h33.807v84.613q0,11.651,6.017,17.954t16.33,6.3q10.124,0,16.427-6.3t6.3-17.954V45.07h33.809v84.613a67.142,67.142,0,0,1-4.012,24.065,49.88,49.88,0,0,1-11.269,17.764,47.837,47.837,0,0,1-17.762,11.078,67.769,67.769,0,0,1-23.3,3.819A67.556,67.556,0,0,1-5559.811,182.59Zm-149.075-1.814a72.422,72.422,0,0,1-22.633-15.281,70.824,70.824,0,0,1-15.185-22.729,71.037,71.037,0,0,1-5.54-27.982A70.347,70.347,0,0,1-5746.7,86.9a72.241,72.241,0,0,1,15.185-22.729,71.626,71.626,0,0,1,22.633-15.375A69.308,69.308,0,0,1-5681,43.159a69.317,69.317,0,0,1,27.887,5.635,72.778,72.778,0,0,1,22.728,15.375A71.413,71.413,0,0,1-5615.1,86.9a70.347,70.347,0,0,1,5.539,27.886,62.693,62.693,0,0,1-4.489,23.589,75.569,75.569,0,0,1-12.128,20.342l20.056,25.785H-5642.8l-5.73-7.067a68.829,68.829,0,0,1-15.854,6.685A61.587,61.587,0,0,1-5681,186.409,69.307,69.307,0,0,1-5708.886,180.776Zm12.415-103.045a39.189,39.189,0,0,0-12.223,8.691,40.24,40.24,0,0,0-8.118,12.8,41.3,41.3,0,0,0-2.96,15.566,40.569,40.569,0,0,0,2.96,15.471,40.507,40.507,0,0,0,8.118,12.7,37.928,37.928,0,0,0,12.223,8.594A37.542,37.542,0,0,0-5681,154.7a40.794,40.794,0,0,0,12.988-2.1l-30.942-39.536h37.628l15.279,19.864a40,40,0,0,0,4.2-18.146,41.3,41.3,0,0,0-2.96-15.566,38.657,38.657,0,0,0-8.308-12.8,41.223,41.223,0,0,0-12.511-8.691A36.8,36.8,0,0,0-5681,74.484,36.608,36.608,0,0,0-5696.471,77.73Zm800.864,106.77V96.066l-36.864,49.47-36.481-49.278V184.5h-32.661V45.07h31.707l37.627,52.143,38.772-52.143h30.368V184.5Zm-293.567,0V45.07h33.615V184.5Zm-140.195,0V45.07h49.47a79.034,79.034,0,0,1,29.6,5.349,68.819,68.819,0,0,1,22.92,14.707,65.651,65.651,0,0,1,14.8,22.059,71.493,71.493,0,0,1,5.253,27.6,70.024,70.024,0,0,1-5.443,27.7,66.765,66.765,0,0,1-14.994,22.061,69.85,69.85,0,0,1-22.825,14.611,76.2,76.2,0,0,1-28.746,5.349Zm33.235-31.134h15.279a43.875,43.875,0,0,0,16.521-2.961,37.267,37.267,0,0,0,12.606-8.212,35.567,35.567,0,0,0,8.022-12.32,40.959,40.959,0,0,0,2.77-15.089,42.81,42.81,0,0,0-2.674-15.279,35.1,35.1,0,0,0-7.832-12.32,35.875,35.875,0,0,0-12.7-8.212,47.077,47.077,0,0,0-17.286-2.961h-14.707Zm-78.883,31.134-7.259-20.82h-53.289l-7.258,20.82h-33.615l51.569-139.431h32.088l51.57,139.431Zm-50.234-49.852h32.853l-16.425-46.794ZM-5894.5,55.5l102,59-102,59Z" transform="translate(6046.32 313.001)" fill="#ff7f00"/>
    <path id="Path_7" data-name="Path 7" d="M56.565,1.35a48.984,48.984,0,0,1-19.71-3.983,50.62,50.62,0,0,1-16-10.867A51.059,51.059,0,0,1,10.125-29.565,49.713,49.713,0,0,1,6.21-49.275a49.713,49.713,0,0,1,3.915-19.71A51.059,51.059,0,0,1,20.857-85.05a50.621,50.621,0,0,1,16-10.868A48.984,48.984,0,0,1,56.565-99.9a49.464,49.464,0,0,1,19.778,3.982A50.416,50.416,0,0,1,92.407-85.05a52.02,52.02,0,0,1,10.8,16.065,48.984,48.984,0,0,1,3.982,19.71,46.046,46.046,0,0,1-3.1,16.875A51.784,51.784,0,0,1,95.58-17.955L109.62,0h-22l-5.13-6.345a51.717,51.717,0,0,1-12.42,5.67A45.87,45.87,0,0,1,56.565,1.35Zm0-18.36a31.351,31.351,0,0,0,7.763-.945,32.9,32.9,0,0,0,7.088-2.7l-21.6-27.54H71.82L83.97-32.67a31.751,31.751,0,0,0,3.308-7.83,33.04,33.04,0,0,0,1.147-8.775A32.837,32.837,0,0,0,86-61.83a32.383,32.383,0,0,0-6.75-10.4,31.932,31.932,0,0,0-10.125-7.02A30.714,30.714,0,0,0,56.565-81.81a30.245,30.245,0,0,0-12.487,2.565,31.355,31.355,0,0,0-9.99,7.02A32.974,32.974,0,0,0,27.4-61.83a32.837,32.837,0,0,0-2.43,12.555A32.334,32.334,0,0,0,27.4-36.788a32.357,32.357,0,0,0,6.683,10.26,31.888,31.888,0,0,0,9.99,6.953A30.245,30.245,0,0,0,56.565-17.01Zm91.8,18.5q-13.5,0-20.925-8.1T120.015-29.16V-72.9H139.05v41.175q0,7.695,3.645,12.15t11.2,4.455a14.371,14.371,0,0,0,10.935-4.59q4.32-4.59,4.32-13.1V-72.9l18.9-.135v72.9L169.425,0V-9.18a24.869,24.869,0,0,1-8.91,7.83A25.737,25.737,0,0,1,148.365,1.485Zm86.94,0A33.859,33.859,0,0,1,222.21-1.148a33.291,33.291,0,0,1-11.205-7.627,38.761,38.761,0,0,1-7.83-11.948,39.681,39.681,0,0,1-2.97-15.728,40.624,40.624,0,0,1,2.9-15.66,37.622,37.622,0,0,1,7.762-12.015,33.121,33.121,0,0,1,11.273-7.627,35.031,35.031,0,0,1,13.432-2.633,28.458,28.458,0,0,1,13.028,2.9,26.528,26.528,0,0,1,9.517,8.032V-72.9h18.495V0H258.12V-9.855a26.977,26.977,0,0,1-9.787,8.37A28.449,28.449,0,0,1,235.3,1.485Zm3.645-17.55a19.863,19.863,0,0,0,8.032-1.62,20.062,20.062,0,0,0,6.413-4.388,20.507,20.507,0,0,0,4.252-6.48,20.609,20.609,0,0,0,1.553-8.032,20.761,20.761,0,0,0-1.553-7.965A20.317,20.317,0,0,0,253.4-51.1a20.062,20.062,0,0,0-6.413-4.387,19.863,19.863,0,0,0-8.032-1.62,19.531,19.531,0,0,0-7.9,1.62A20.062,20.062,0,0,0,224.64-51.1a21.489,21.489,0,0,0-4.32,6.48,19.863,19.863,0,0,0-1.62,8.033,19.863,19.863,0,0,0,1.62,8.032,21.489,21.489,0,0,0,4.32,6.48,20.062,20.062,0,0,0,6.413,4.388A19.531,19.531,0,0,0,238.95-16.065Zm84.915,17.55a33.859,33.859,0,0,1-13.1-2.633,33.291,33.291,0,0,1-11.2-7.627,38.761,38.761,0,0,1-7.83-11.948,39.681,39.681,0,0,1-2.97-15.728,40.624,40.624,0,0,1,2.9-15.66,37.621,37.621,0,0,1,7.763-12.015A33.121,33.121,0,0,1,310.7-71.752a35.031,35.031,0,0,1,13.432-2.633,29.022,29.022,0,0,1,13.027,2.835,25.909,25.909,0,0,1,9.518,7.965v-42.93h18.36V0H346.68V-9.99a27.6,27.6,0,0,1-9.788,8.437A27.929,27.929,0,0,1,323.865,1.485Zm3.645-17.55a19.863,19.863,0,0,0,8.033-1.62,20.061,20.061,0,0,0,6.413-4.388,20.507,20.507,0,0,0,4.253-6.48,20.609,20.609,0,0,0,1.552-8.032,20.761,20.761,0,0,0-1.552-7.965,20.317,20.317,0,0,0-4.253-6.548,20.061,20.061,0,0,0-6.413-4.387,19.863,19.863,0,0,0-8.033-1.62,19.531,19.531,0,0,0-7.9,1.62A20.062,20.062,0,0,0,313.2-51.1a21.489,21.489,0,0,0-4.32,6.48,19.863,19.863,0,0,0-1.62,8.033,19.863,19.863,0,0,0,1.62,8.032,21.489,21.489,0,0,0,4.32,6.48,20.062,20.062,0,0,0,6.413,4.388A19.531,19.531,0,0,0,327.51-16.065ZM379.62-72.9h19.035V0H379.62Zm-2.43-20.52a11.927,11.927,0,0,1,3.375-8.708,11.413,11.413,0,0,1,8.505-3.442,11.523,11.523,0,0,1,8.708,3.442,12.061,12.061,0,0,1,3.307,8.708,11.656,11.656,0,0,1-3.307,8.5,11.644,11.644,0,0,1-8.708,3.375,11.474,11.474,0,0,1-8.572-3.375A11.656,11.656,0,0,1,377.19-93.42Zm64.26,94.9q-13.5,0-20.925-8.1T413.1-29.16V-72.9h19.035v41.175q0,7.695,3.645,12.15t11.205,4.455a14.371,14.371,0,0,0,10.935-4.59q4.32-4.59,4.32-13.1V-72.9l18.9-.135v72.9L462.51,0V-9.18a24.869,24.869,0,0,1-8.91,7.83A25.737,25.737,0,0,1,441.45,1.485ZM495.99-72.9h18.63v8.64a24.119,24.119,0,0,1,8.505-7.425,24.841,24.841,0,0,1,11.745-2.7q8.235,0,13.77,3.173a21.11,21.11,0,0,1,8.505,9.112,25.659,25.659,0,0,1,9.383-8.977,26.9,26.9,0,0,1,13.432-3.308q13.9,0,20.857,7.9T607.77-44.82V0H588.6V-42.12q0-7.425-3.173-11.677T575.1-58.05A12.873,12.873,0,0,0,564.975-53.8Q561.2-49.545,561.2-40.9V0H542.16V-42.66q0-7.29-3.105-11.34t-9.99-4.05q-6.615,0-10.462,4.32T514.755-40.5V0H495.99ZM690.93,1.35A64.788,64.788,0,0,1,676.485-.135,50.224,50.224,0,0,1,664.74-4.32a47.022,47.022,0,0,1-9.517-6.412A60.607,60.607,0,0,1,647.46-18.9l16.6-13.23A34.538,34.538,0,0,0,675.54-20.52,29.917,29.917,0,0,0,691.065-16.6q8.1,0,12.15-3.442a11.078,11.078,0,0,0,4.05-8.843,9.014,9.014,0,0,0-1.687-5.6,13.494,13.494,0,0,0-4.725-3.78,32.705,32.705,0,0,0-7.29-2.565q-4.253-1.012-9.383-2.228-5.535-1.215-11.07-2.9a36.5,36.5,0,0,1-9.99-4.725,24.324,24.324,0,0,1-7.29-7.83q-2.835-4.793-2.835-12.353a25.977,25.977,0,0,1,2.565-11.408,27.613,27.613,0,0,1,7.223-9.247,35.717,35.717,0,0,1,11.07-6.21,41.6,41.6,0,0,1,14.108-2.295,57.226,57.226,0,0,1,11.88,1.147A47.084,47.084,0,0,1,709.9-95.58a42.534,42.534,0,0,1,8.64,5.333A65.488,65.488,0,0,1,726.3-82.89L710.775-70.74a31.28,31.28,0,0,0-9.247-8.978q-5.332-3.308-13.838-3.308-8.1,0-11.677,3.442a11.1,11.1,0,0,0-3.578,8.3,6.859,6.859,0,0,0,1.755,4.86,13.807,13.807,0,0,0,4.725,3.173,41.749,41.749,0,0,0,7.02,2.227q4.05.945,8.64,2.025,5.67,1.215,11.475,2.97a36.855,36.855,0,0,1,10.463,4.995,25.753,25.753,0,0,1,7.628,8.37q2.97,5.13,2.97,13.1a28.36,28.36,0,0,1-2.565,11.947,29.9,29.9,0,0,1-7.29,9.855A34.4,34.4,0,0,1,705.848-1.08,43.4,43.4,0,0,1,690.93,1.35Zm40.23-99.9h20.115l26.46,73.17,26.73-73.17h19.98L787.185,0H768.42ZM877.5,1.35A52.939,52.939,0,0,1,856.44-2.7a49.418,49.418,0,0,1-16.2-11,49.628,49.628,0,0,1-10.463-16.133,51.358,51.358,0,0,1-3.712-19.44,52.116,52.116,0,0,1,3.78-19.912,48.816,48.816,0,0,1,10.53-16.065A49.1,49.1,0,0,1,856.44-95.985,52.442,52.442,0,0,1,876.96-99.9q14.04,0,24.57,5.535A51.313,51.313,0,0,1,919.08-79.38l-16.065,11.2a30.543,30.543,0,0,0-10.867-10.058A31.175,31.175,0,0,0,876.96-81.81a31.047,31.047,0,0,0-12.69,2.565,31.675,31.675,0,0,0-10.057,6.953,32.166,32.166,0,0,0-6.682,10.327,33.188,33.188,0,0,0-2.43,12.69,33.866,33.866,0,0,0,2.362,12.757,31.432,31.432,0,0,0,6.615,10.26A29.623,29.623,0,0,0,864.27-19.44a33.9,33.9,0,0,0,12.96,2.43q11.34,0,18.495-5.805A28.135,28.135,0,0,0,905.31-38.34H873.99V-56.16h51.84v8.235a52.527,52.527,0,0,1-3.375,18.765A48.159,48.159,0,0,1,912.8-13.432a45.565,45.565,0,0,1-15.255,10.8A48.914,48.914,0,0,1,877.5,1.35Zm94.635-99.9H991.3v80.055h45.5V0H972.135ZM1083.1,1.485a38.749,38.749,0,0,1-15.255-2.97,38.05,38.05,0,0,1-12.217-8.168,37.532,37.532,0,0,1-8.1-12.083,37.49,37.49,0,0,1-2.9-14.715,37.984,37.984,0,0,1,2.9-14.783,36.583,36.583,0,0,1,8.1-12.083,38.615,38.615,0,0,1,12.217-8.1,38.748,38.748,0,0,1,15.255-2.97,38.894,38.894,0,0,1,15.188,2.97,38.421,38.421,0,0,1,12.285,8.1,37.461,37.461,0,0,1,8.167,12.083,37.234,37.234,0,0,1,2.97,14.783,36.751,36.751,0,0,1-2.97,14.715,39.039,39.039,0,0,1-8.1,12.083,37.1,37.1,0,0,1-12.218,8.168A39.242,39.242,0,0,1,1083.1,1.485Zm.135-17.685a19.06,19.06,0,0,0,7.83-1.62,20.857,20.857,0,0,0,6.345-4.32,19.715,19.715,0,0,0,4.252-6.412,20.609,20.609,0,0,0,1.552-8.032,20.761,20.761,0,0,0-1.552-7.965,19.544,19.544,0,0,0-4.252-6.48,20.857,20.857,0,0,0-6.345-4.32,19.06,19.06,0,0,0-7.83-1.62,19.06,19.06,0,0,0-7.83,1.62,20.854,20.854,0,0,0-6.345,4.32,19.543,19.543,0,0,0-4.253,6.48,20.761,20.761,0,0,0-1.552,7.965,20.609,20.609,0,0,0,1.552,8.032,19.713,19.713,0,0,0,4.253,6.412,20.854,20.854,0,0,0,6.345,4.32A19.06,19.06,0,0,0,1083.24-16.2Zm83.7,17.28a33.859,33.859,0,0,1-13.095-2.633,33.767,33.767,0,0,1-11.2-7.56,37.914,37.914,0,0,1-7.83-11.88,39.32,39.32,0,0,1-2.97-15.593,40.625,40.625,0,0,1,2.9-15.66,36.819,36.819,0,0,1,7.763-11.947,33.59,33.59,0,0,1,11.272-7.56,35.031,35.031,0,0,1,13.432-2.633,28.748,28.748,0,0,1,13.162,2.97,25.668,25.668,0,0,1,9.518,8.1V-72.9h18.63V-5.4a37.123,37.123,0,0,1-2.835,14.647,34.462,34.462,0,0,1-7.9,11.542,36.611,36.611,0,0,1-12.083,7.628,41.606,41.606,0,0,1-15.39,2.768q-12.555,0-21.06-3.578A39.006,39.006,0,0,1,1134.54,16.74l15.39-12.015a27.879,27.879,0,0,0,8.1,7.29q4.455,2.565,11.745,2.565a22.18,22.18,0,0,0,8.1-1.418,19.212,19.212,0,0,0,6.345-3.982,17.745,17.745,0,0,0,4.185-6.143,20.406,20.406,0,0,0,1.485-7.9v-5.535a27.434,27.434,0,0,1-9.855,8.437A28.337,28.337,0,0,1,1166.94,1.08Zm3.645-17.28a19.863,19.863,0,0,0,8.032-1.62,20.063,20.063,0,0,0,6.413-4.388,20.509,20.509,0,0,0,4.252-6.48,20.609,20.609,0,0,0,1.552-8.033,20.609,20.609,0,0,0-1.552-8.032,20.509,20.509,0,0,0-4.252-6.48,20.063,20.063,0,0,0-6.413-4.387,19.863,19.863,0,0,0-8.032-1.62,20.262,20.262,0,0,0-7.9,1.552,19.192,19.192,0,0,0-6.412,4.32,21.262,21.262,0,0,0-4.32,6.548,20.344,20.344,0,0,0-1.62,8.1,19.864,19.864,0,0,0,1.62,8.033,21.488,21.488,0,0,0,4.32,6.48,20.061,20.061,0,0,0,6.412,4.388A19.531,19.531,0,0,0,1170.585-16.2Zm88.7,17.685a38.749,38.749,0,0,1-15.255-2.97,38.05,38.05,0,0,1-12.217-8.168,37.532,37.532,0,0,1-8.1-12.083,37.49,37.49,0,0,1-2.9-14.715,37.984,37.984,0,0,1,2.9-14.783,36.583,36.583,0,0,1,8.1-12.083,38.615,38.615,0,0,1,12.217-8.1,38.748,38.748,0,0,1,15.255-2.97,38.894,38.894,0,0,1,15.188,2.97,38.421,38.421,0,0,1,12.285,8.1,37.461,37.461,0,0,1,8.167,12.083,37.234,37.234,0,0,1,2.97,14.783,36.751,36.751,0,0,1-2.97,14.715,39.039,39.039,0,0,1-8.1,12.083A37.1,37.1,0,0,1,1274.6-1.485,39.242,39.242,0,0,1,1259.28,1.485Zm.135-17.685a19.06,19.06,0,0,0,7.83-1.62,20.857,20.857,0,0,0,6.345-4.32,19.715,19.715,0,0,0,4.252-6.412,20.609,20.609,0,0,0,1.552-8.032,20.761,20.761,0,0,0-1.552-7.965,19.544,19.544,0,0,0-4.252-6.48,20.857,20.857,0,0,0-6.345-4.32,19.06,19.06,0,0,0-7.83-1.62,19.06,19.06,0,0,0-7.83,1.62,20.854,20.854,0,0,0-6.345,4.32,19.543,19.543,0,0,0-4.253,6.48,20.761,20.761,0,0,0-1.552,7.965,20.609,20.609,0,0,0,1.552,8.032,19.713,19.713,0,0,0,4.253,6.412,20.854,20.854,0,0,0,6.345,4.32A19.06,19.06,0,0,0,1259.415-16.2ZM1338.39,1.485q-13.095,0-21.4-4.657A30.4,30.4,0,0,1,1304.37-16.6l17.955-7.02q4.86,9.855,16.74,9.855,5.67,0,8.64-2.363a6.99,6.99,0,0,0,2.97-5.6,4.358,4.358,0,0,0-1.35-3.307,10.778,10.778,0,0,0-3.713-2.16,40.531,40.531,0,0,0-5.468-1.552q-3.1-.675-6.615-1.35-4.59-.945-9.247-2.295a30.867,30.867,0,0,1-8.37-3.78,19.563,19.563,0,0,1-6.008-6.142,17.851,17.851,0,0,1-2.295-9.518,18.884,18.884,0,0,1,2.16-8.775,22.326,22.326,0,0,1,6.075-7.29,30.428,30.428,0,0,1,9.382-4.927,38.492,38.492,0,0,1,12.218-1.823q11.61,0,18.9,4.118a37.907,37.907,0,0,1,12.42,11.408l-17.01,6.885a16.847,16.847,0,0,0-5.738-5.67,16.671,16.671,0,0,0-8.573-2.025q-5.535,0-8.167,1.958a6.039,6.039,0,0,0-2.633,5.063q0,3.51,4.32,4.927t12.285,3.173q4.59.945,9.247,2.295A31.754,31.754,0,0,1,1361-38.678a20.336,20.336,0,0,1,6.277,6.413,18.111,18.111,0,0,1,2.43,9.72,20.937,20.937,0,0,1-1.89,8.573,22.32,22.32,0,0,1-5.805,7.695,30.686,30.686,0,0,1-9.787,5.6A40.073,40.073,0,0,1,1338.39,1.485ZM6.615,141.07a27.83,27.83,0,0,1,2.5-11.948,37.606,37.606,0,0,1,6.413-9.585,52.7,52.7,0,0,1,8.91-7.695q4.995-3.443,9.855-6.412,4.05-2.565,7.763-4.86a48.291,48.291,0,0,0,6.48-4.725,23.3,23.3,0,0,0,4.388-5,10.175,10.175,0,0,0,1.62-5.535,10.984,10.984,0,0,0-3.577-8.437Q47.385,73.57,40.5,73.57a17.592,17.592,0,0,0-11.61,3.915,24.554,24.554,0,0,0-7.155,9.99L4.86,79.24A40.248,40.248,0,0,1,18.967,63.107Q28.08,57.1,40.77,57.1a41.388,41.388,0,0,1,13.905,2.16A30.321,30.321,0,0,1,65,65.268a25.752,25.752,0,0,1,6.48,9.045A27.972,27.972,0,0,1,73.71,85.45a24.1,24.1,0,0,1-2.295,10.665,32.859,32.859,0,0,1-5.94,8.5,50.023,50.023,0,0,1-8.3,6.885q-4.657,3.1-9.382,5.94-4.05,2.43-7.83,4.86a54.942,54.942,0,0,0-6.682,5,27.919,27.919,0,0,0-4.793,5.4,11.849,11.849,0,0,0-2.025,6.21H73.305V157H6.615Zm117.18-.945a22.18,22.18,0,0,0,8.1-1.417,13.348,13.348,0,0,0,6.143-5,27.08,27.08,0,0,0,3.847-9.517,69.26,69.26,0,0,0,1.35-14.985v-4.05a63.529,63.529,0,0,0-1.417-14.715,25.619,25.619,0,0,0-3.915-9.18,13.37,13.37,0,0,0-6.075-4.725,22.208,22.208,0,0,0-7.9-1.35,21.646,21.646,0,0,0-8.033,1.417,14.106,14.106,0,0,0-6.143,4.86,25.559,25.559,0,0,0-3.982,9.247,62.1,62.1,0,0,0-1.418,14.445v4.05a70.035,70.035,0,0,0,1.35,15.12,26.344,26.344,0,0,0,3.847,9.45,13.477,13.477,0,0,0,6.142,4.928A22.18,22.18,0,0,0,123.795,140.125Zm0,18.225a44.466,44.466,0,0,1-15.592-2.633,29.56,29.56,0,0,1-12.15-8.437,40.724,40.724,0,0,1-7.9-15.12q-2.835-9.315-2.835-22.68v-4.59q0-12.825,2.97-21.87a41.21,41.21,0,0,1,8.168-14.85,30.685,30.685,0,0,1,12.218-8.437,44.783,44.783,0,0,1,30.442.067,30.676,30.676,0,0,1,12.217,8.505,41.81,41.81,0,0,1,8.1,14.85q2.97,9.045,2.97,21.735v4.59q0,13.635-2.835,22.95a39.492,39.492,0,0,1-7.965,15.053,29.759,29.759,0,0,1-12.217,8.3A45.521,45.521,0,0,1,123.795,158.35Zm49.41-17.28a27.83,27.83,0,0,1,2.5-11.948,37.606,37.606,0,0,1,6.412-9.585,52.7,52.7,0,0,1,8.91-7.695q5-3.443,9.855-6.412,4.05-2.565,7.762-4.86a48.292,48.292,0,0,0,6.48-4.725,23.3,23.3,0,0,0,4.387-5,10.175,10.175,0,0,0,1.62-5.535,10.984,10.984,0,0,0-3.578-8.437q-3.577-3.307-10.462-3.307a17.592,17.592,0,0,0-11.61,3.915,24.554,24.554,0,0,0-7.155,9.99L171.45,79.24a40.248,40.248,0,0,1,14.107-16.133q9.112-6.008,21.8-6.007a41.388,41.388,0,0,1,13.905,2.16,30.321,30.321,0,0,1,10.327,6.007,25.752,25.752,0,0,1,6.48,9.045A27.972,27.972,0,0,1,240.3,85.45a24.1,24.1,0,0,1-2.295,10.665,32.86,32.86,0,0,1-5.94,8.5,50.024,50.024,0,0,1-8.3,6.885q-4.657,3.1-9.382,5.94-4.05,2.43-7.83,4.86a54.941,54.941,0,0,0-6.682,5,27.919,27.919,0,0,0-4.792,5.4,11.849,11.849,0,0,0-2.025,6.21h46.845V157h-66.69Zm111.51,17.28q-13.1,0-21.735-4.185a40.9,40.9,0,0,1-14.985-12.69l15.93-11.745a22.269,22.269,0,0,0,8.775,8.708,25.981,25.981,0,0,0,12.015,2.633q7.29,0,11.947-3.578a11.671,11.671,0,0,0,4.658-9.787,10.65,10.65,0,0,0-4.725-9.247q-4.725-3.308-12.42-3.308H273.24V98h10.125q7.83,0,11.813-3.645a11.914,11.914,0,0,0,3.983-9.18,11.221,11.221,0,0,0-3.645-8.37q-3.645-3.51-11.34-3.51a20.5,20.5,0,0,0-11.2,2.835,21.567,21.567,0,0,0-7.29,7.965l-15.795-9.45a38.243,38.243,0,0,1,14.04-12.893A41.752,41.752,0,0,1,284.04,57.1a47.8,47.8,0,0,1,14.243,1.958,30.837,30.837,0,0,1,10.665,5.6,24.891,24.891,0,0,1,6.75,8.708A26.333,26.333,0,0,1,318.06,84.64a23.83,23.83,0,0,1-3.105,12.217,26.159,26.159,0,0,1-8.5,8.842,27.557,27.557,0,0,1,10.26,8.91,23.367,23.367,0,0,1,3.78,13.5,29.556,29.556,0,0,1-2.43,12.015,26.905,26.905,0,0,1-7.087,9.585,33.882,33.882,0,0,1-11.273,6.345A45.565,45.565,0,0,1,284.715,158.35Z" transform="translate(115 2522)"/>
  </g>
</svg>
